Coordinates
version=1
nRows=17
nColumns=38
inDegrees=no

Units are S.I. units (second, meters, Newtons, ...)
If the header above contains a line with 'inDegrees', this indicates whether rotational values are in degrees (yes) or radians (no).

endheader
time	pelvis_tilt	pelvis_list	pelvis_rotation	pelvis_tx	pelvis_ty	pelvis_tz	hip_flexion_r	hip_adduction_r	hip_rotation_r	knee_angle_r	ankle_angle_r	subtalar_angle_r	mtp_angle_r	hip_flexion_l	hip_adduction_l	hip_rotation_l	knee_angle_l	ankle_angle_l	subtalar_angle_l	mtp_angle_l	lumbar_extension	lumbar_bending	lumbar_rotation	arm_flex_r	arm_add_r	arm_rot_r	elbow_flex_r	pro_sup_r	wrist_flex_r	wrist_dev_r	arm_flex_l	arm_add_l	arm_rot_l	elbow_flex_l	pro_sup_l	wrist_flex_l	wrist_dev_l
0	-2.99881	1.35933	-1.69493	0.986285	-0.757647	0.955079	-0.242155	0.0305627	-0.199777	0.0988104	0.0144713	0	0	0.453885	-0.127225	-0.139278	1.15286	0.125807	0	0	-0.27567	-0.0804637	0.161606	0.345088	-0.455124	-0.111319	1.30266	1.5708	0	0	0.370684	-0.389504	-0.17747	1.78812	0.354084	0	0
0.01	-2.98493	1.36166	-1.71315	0.987226	-0.748458	0.954818	-0.252438	0.0292272	-0.197154	0.093799	0.0173246	0	0	0.460338	-0.127332	-0.154123	1.10448	0.127197	0	0	-0.275071	-0.0848631	0.165876	0.346575	-0.455168	-0.11146	1.30407	1.5708	0	0	0.373475	-0.390432	-0.180799	1.80018	0.360906	0	0
0.02	-2.93175	1.3735	-1.77144	0.988499	-0.738833	0.952335	-0.24267	0.0246532	-0.235147	0.0943312	0.0668638	0	0	0.477402	-0.122959	-0.174098	1.05597	0.128873	0	0	-0.260162	-0.0963705	0.171882	0.344102	-0.453258	-0.113695	1.30675	1.5708	0	0	0.37025	-0.400734	-0.147668	1.75258	0.472965	0	0
0.03	-2.91383	1.37857	-1.79166	0.988782	-0.729343	0.951461	-0.24947	0.0229573	-0.230229	0.0909208	0.0714082	0	0	0.481781	-0.121562	-0.190344	0.999025	0.128451	0	0	-0.253972	-0.0979866	0.178287	0.341241	-0.454544	-0.11768	1.30883	1.5708	0	0	0.36898	-0.411102	-0.070543	1.62775	0.704179	0	0
0.04	-2.89918	1.38265	-1.80684	0.988783	-0.71986	0.950271	-0.257076	0.0217971	-0.227023	0.0893663	0.0764056	0	0	0.483127	-0.11897	-0.205325	0.938587	0.125706	0	0	-0.249223	-0.0994035	0.182878	0.338952	-0.455875	-0.122429	1.3106	1.5708	0	0	0.377488	-0.421859	0.0240386	1.55136	1.11377	0	0
0.05	-2.88674	1.38616	-1.81967	0.988802	-0.710144	0.948784	-0.265329	0.0210513	-0.224901	0.0887415	0.087521	0	0	0.480928	-0.116082	-0.221257	0.873661	0.122587	0	0	-0.246812	-0.100726	0.18037	0.343626	-0.454898	-0.118997	1.31079	1.5708	0	0	0.372139	-0.414317	-0.0443938	1.57329	0.727212	0	0
0.06	-2.8773	1.38966	-1.82914	0.98865	-0.700295	0.947153	-0.273243	0.0206852	-0.224551	0.0891421	0.0992085	0	0	0.475863	-0.111878	-0.236287	0.80444	0.120415	0	0	-0.242569	-0.101416	0.182414	0.34291	-0.456222	-0.122117	1.31175	1.5708	0	0	0.377558	-0.421494	0.0178775	1.55602	1.12149	0	0
0.07	-2.876	1.39352	-1.82752	0.987915	-0.690522	0.945257	-0.281251	0.0221823	-0.226256	0.0899366	0.11101	0	0	0.470122	-0.106016	-0.246826	0.733242	0.119476	0	0	-0.239512	-0.0990353	0.179707	0.345639	-0.458046	-0.119395	1.31181	1.5708	0	0	0.378445	-0.420152	0.0169008	1.55595	1.12238	0	0
0.08	-2.87669	1.39778	-1.82363	0.987173	-0.680507	0.943142	-0.289449	0.0241831	-0.22781	0.0905371	0.121508	0	0	0.462624	-0.0994996	-0.256658	0.65975	0.119768	0	0	-0.236605	-0.0952774	0.17283	0.353654	-0.45835	-0.111568	1.30974	1.5708	0	0	0.382986	-0.406043	-0.103312	1.55751	1.5708	0	0
0.09	-2.88218	1.40309	-1.81515	0.986307	-0.670338	0.940837	-0.297024	0.0269959	-0.228408	0.0908182	0.129806	0	0	0.454217	-0.0929436	-0.266336	0.585178	0.119777	0	0	-0.229977	-0.092411	0.173997	0.353078	-0.460907	-0.113565	1.30695	1.5708	0	0	0.379127	-0.416704	0.0158532	1.5505	1.1269	0	0
0.1	-2.88411	1.40877	-1.8091	0.985329	-0.660004	0.938365	-0.303844	0.0292785	-0.230958	0.0924293	0.14223	0	0	0.444814	-0.084306	-0.27457	0.510437	0.118364	0	0	-0.223531	-0.0893153	0.169903	0.35689	-0.461728	-0.10811	1.30306	1.5708	0	0	0.379029	-0.414638	0.0143109	1.54845	1.1298	0	0
0.11	-2.87509	1.42336	-1.81553	0.983721	-0.649257	0.935765	-0.297901	0.02955	-0.234093	0.100414	0.158957	0	0	0.439357	-0.0722704	-0.276138	0.427168	0.113022	0	0	-0.20129	-0.0744529	0.175537	0.352638	-0.468866	-0.0981958	1.30414	1.55068	0	0	0.377891	-0.39488	0.00759356	1.51682	1.13346	0	0
0.12	-2.86775	1.42079	-1.81594	0.98291	-0.638665	0.93312	-0.314873	0.0297034	-0.242304	0.100666	0.171746	0	0	0.416945	-0.0575867	-0.27744	0.350624	0.112498	0	0	-0.207284	-0.0863169	0.159557	0.362839	-0.463157	-0.0876635	1.29231	1.51626	0	0	0.37811	-0.411338	0.012989	1.54341	1.13003	0	0
0.13	-2.86071	1.42709	-1.81862	0.98164	-0.62767	0.93034	-0.320537	0.0303093	-0.247078	0.104633	0.185394	0	0	0.401532	-0.0445078	-0.274288	0.276428	0.10981	0	0	-0.198243	-0.0845305	0.155519	0.363614	-0.46412	-0.0791385	1.28844	1.47667	0	0	0.378219	-0.410007	0.0140164	1.5381	1.13172	0	0
0.14	-2.84414	1.44137	-1.83311	0.9798	-0.61624	0.927561	-0.315996	0.0297541	-0.251074	0.111077	0.196779	0	0	0.390434	-0.0307295	-0.261477	0.200215	0.0990907	0	0	-0.175496	-0.0693814	0.160722	0.359375	-0.465499	-0.101583	1.2912	1.5708	0	0	0.381496	-0.375913	-0.111646	1.50587	1.5708	0	0
0.15	-2.83356	1.43174	-1.8376	0.978729	-0.604958	0.925426	-0.344051	0.0283827	-0.255604	0.104838	0.204793	0	0	0.350202	-0.0115837	-0.236421	0.122183	0.0826701	0	0	-0.187245	-0.0852128	0.150227	0.363419	-0.461256	-0.105053	1.28182	1.5708	0	0	0.383464	-0.406701	0.0214985	1.52639	1.1317	0	0
0.16	-2.8784	1.42058	-1.78893	0.9771	-0.593791	0.923542	-0.375092	0.0335235	-0.25233	0.0987462	0.208765	0	0	0.314359	-0.00450967	-0.223712	0.069352	0.0736938	0	0	-0.207579	-0.0704175	0.15325	0.366037	-0.480087	-0.0976265	1.30928	1.5708	0	0	0.391012	-0.400617	0.0220044	1.52009	1.13095	0	0
